<svg xmlns="http://www.w3.org/2000/svg" viewBox="0 0 400 400">
  <rect x="46" y="46" width="308" height="308" rx="72" fill="none" stroke="#111111" stroke-width="8"/>
  <rect x="50" y="50" width="300" height="300" rx="68" fill="#22c55e"/>
  <!-- Store building -->
  <rect x="100" y="185" width="200" height="120" rx="6" fill="#ffffff" opacity="0.95"/>
  <rect x="100" y="160" width="200" height="32" rx="6" fill="#15803d"/>
  <rect x="86" y="150" width="228" height="22" rx="5" fill="#166534"/>
  <!-- Door -->
  <rect x="168" y="225" width="64" height="80" rx="4" fill="#15803d"/>
  <circle cx="222" cy="268" r="4" fill="#ffffff" opacity="0.8"/>
  <!-- Windows -->
  <rect x="112" y="210" width="44" height="40" rx="4" fill="#bbf7d0"/>
  <line x1="134" y1="210" x2="134" y2="250" stroke="#15803d" stroke-width="2"/>
  <line x1="112" y1="230" x2="156" y2="230" stroke="#15803d" stroke-width="2"/>
  <rect x="244" y="210" width="44" height="40" rx="4" fill="#bbf7d0"/>
  <line x1="266" y1="210" x2="266" y2="250" stroke="#15803d" stroke-width="2"/>
  <line x1="244" y1="230" x2="288" y2="230" stroke="#15803d" stroke-width="2"/>
  <!-- Smart text -->
  <text x="200" y="153" text-anchor="middle" font-family="sans-serif" font-size="15" font-weight="700" fill="#ffffff" letter-spacing="5">SMART</text>
  <!-- Shop text on sign above store -->
  <rect x="110" y="120" width="180" height="34" rx="8" fill="#111111" opacity="0.7"/>
  <text x="200" y="143" text-anchor="middle" font-family="sans-serif" font-size="18" font-weight="900" fill="#ffffff" letter-spacing="3">SmartShop</text>
</svg>
